PathFileType	4	(X/Y/Z)	walk-thru1-5-TP.trc
DataRate	CameraRate	NumFrames	NumMarkers	Units	OrigDataRate	OrigDataStartFrame	OrigNumFrames
120.00	120.00	       4	60	mm	120.00	341	       454
Frame#	Time	Top.Head			Front.Head			Rear.Head			Jaw			C7			R.Clavicle			L.Clavicle			R.Shoulder			L.Shoulder			R.Scapula			L.Scapula			R.Scap.Inf			R.Biceps.Lateral			R.Elbow			R.Elbow.Medial			R.Forearm			R.Ulna			R.Radius			R.Wrist			R.Thumb.M1			R.Thumb.M2			R.Thumb.M3			R.Finger3.M1			R.Finger3.M2			R.Finger3.M3			L.Biceps.Lateral			L.Elbow			L.Elbow.Medial			L.Forearm			L.Ulna			L.Radius			L.Wrist			L.Thumb.M1			L.Thumb.M2			L.Thumb.M3			L.Finger3.M1			L.Finger3.M2			L.Finger3.M3			V.Sacral			R.ASIS			L.ASIS			R.Thigh			R.Thigh.Front			R.Knee			R.Knee.Medial			R.Shank			R.Ankle			R.Ankle.Medial			R.Heel			R.Toe			R.MedFoot			L.Thigh			L.Knee			L.Knee.Medial			L.Shank			L.Ankle			L.Ankle.Medial			L.Heel			L.Toe			L.MedFoot			V_mid_ASIS			V_R_Knee_JC			V_L_Knee_JC			V_R_Elbow_JC			V_L_Elbow_JC			V_R_Ankle_JC			V_L_Ankle_JC			V_R_Wrist_JC			V_L_Wrist_JC			V_R_ScaTrpz_1stMC_JC			V_R_1stMC_1stPP_JC			V_R_1stPP_1stDP_JC			V_R_LunCap_3rdMC_JC			V_R_3rdMC_3rdPP_JC			V_R_3rdPP_3rdMP_JC			V_R_3rdMP_3rdDP_JC			V_L_ScaTrpz_1stMC_JC			V_L_1stMC_1stPP_JC			V_L_1stPP_1stDP_JC			V_L_LunCap_3rdMC_JC			V_L_3rdMC_3rdPP_JC			V_L_3rdPP_3rdMP_JC			V_L_3rdMP_3rdPP_JC			V_ROOT_JC			V_R_Hip_JC			V_L_Hip_JC			V_R_GlenHum_JC			V_L_GlenHum_JC			V_ForeHead_Ctr			V_Vertex			V_Sagit_Lambdoid_Suture			V_R_FrontoTemp			V_L_FrontoTemporal			V_R_ParietalOccip			V_L_ParietalOcciptal			V_R_Temporal			V_L_Temporal			V_mid_FrontRearHead			V_mid_RLGlenHumCtrs			V_C7_vert			V_C1_vert			V_Mid_Hip			
		X1	Y1	Z1	X2	Y2	Z2	X3	Y3	Z3	X4	Y4	Z4	X5	Y5	Z5	X6	Y6	Z6	X7	Y7	Z7	X8	Y8	Z8	X9	Y9	Z9	X10	Y10	Z10	X11	Y11	Z11	X12	Y12	Z12	X13	Y13	Z13	X14	Y14	Z14	X15	Y15	Z15	X16	Y16	Z16	X17	Y17	Z17	X18	Y18	Z18	X19	Y19	Z19	X20	Y20	Z20	X21	Y21	Z21	X22	Y22	Z22	X23	Y23	Z23	X24	Y24	Z24	X25	Y25	Z25	X26	Y26	Z26	X27	Y27	Z27	X28	Y28	Z28	X29	Y29	Z29	X30	Y30	Z30	X31	Y31	Z31	X32	Y32	Z32	X33	Y33	Z33	X34	Y34	Z34	X35	Y35	Z35	X36	Y36	Z36	X37	Y37	Z37	X38	Y38	Z38	X39	Y39	Z39	X40	Y40	Z40	X41	Y41	Z41	X42	Y42	Z42	X43	Y43	Z43	X44	Y44	Z44	X45	Y45	Z45	X46	Y46	Z46	X47	Y47	Z47	X48	Y48	Z48	X49	Y49	Z49	X50	Y50	Z50	X51	Y51	Z51	X52	Y52	Z52	X53	Y53	Z53	X54	Y54	Z54	X55	Y55	Z55	X56	Y56	Z56	X57	Y57	Z57	X58	Y58	Z58	X59	Y59	Z59	X60	Y60	Z60	

341	2.833	-355.67935	-10.57100	1559.72583	-454.86926	-5.00444	1455.87781	-241.91983	-8.31301	1481.44043	-419.98688	9.99997	1316.71423	-222.68813	9.34994	1372.30444	-297.14035	122.84561	1279.00732	-321.95081	-92.11249	1287.91321	-243.44579	197.41852	1276.71106	-276.66394	-186.08482	1292.07410	-167.45441	91.62536	1294.81738	-176.83884	-89.76544	1298.23608	-120.66100	71.17926	1214.95581	-273.92578	250.20790	1136.09155	-259.91287	274.54480	972.64990	-231.23688	204.33543	952.73828	-347.44434	268.57214	910.47058	-330.27646	292.60208	821.68823	-406.02017	253.91638	787.64056	-401.53781	292.59360	752.39313	-438.52090	259.53955	741.22375	-459.11694	246.97276	709.07373	-474.68951	238.37544	670.96960	-429.71436	310.85431	681.18823	-442.22992	289.78467	632.83801	-437.25711	263.27612	599.83405	-250.26459	-250.44984	1150.33057	-193.45706	-262.69745	1008.81195	-166.94765	-184.58076	1002.85620	-278.15045	-239.54485	946.06799	-272.91895	-275.46713	854.33850	-323.43857	-216.18188	816.42462	-335.81509	-263.52225	791.86511	-356.83273	-220.55183	782.48901	-369.93130	-197.93636	745.20660	-373.32166	-199.72629	690.62006	-371.43958	-264.21545	710.26556	-376.69220	-254.44290	671.23254	-368.97122	-226.34718	633.12634	-104.72700	-8.71598	903.58459	-287.39014	163.21017	969.88605	-296.63577	-156.62331	954.35846	-283.44064	181.89581	577.29199	-349.74005	107.66331	488.57797	-295.73386	138.58185	439.82980	-307.81174	28.53032	435.48157	-280.72644	81.77888	267.76575	-184.89743	84.70467	62.64327	-205.52214	-4.75167	83.88471	-126.54354	27.31191	39.33888	-326.42221	68.09521	37.82483	-273.70813	22.19327	64.22231	-376.64954	-188.29771	594.23547	-435.04572	-166.09023	462.35413	-452.32520	-42.13551	448.48071	-386.93341	-111.90858	269.36661	-269.89252	-128.98143	102.65998	-291.39490	-40.07868	118.58079	-210.07230	-77.20258	91.88779	-399.27576	-94.09157	48.96732	-359.65747	-61.19464	80.16308																																																																																																																															
342	2.842	-361.07813	-10.03057	1557.92249	-459.21820	-5.31988	1455.52832	-246.53519	-7.22399	1481.15710	-424.90619	10.88048	1316.09229	-227.88879	9.99505	1372.29517	-300.80341	122.91335	1278.62817	-326.84787	-89.95731	1287.40674	-248.30969	197.07880	1275.83276	-281.33450	-186.37090	1291.02844	-172.15715	91.56276	1293.93994	-181.35573	-88.79529	1297.74915	-125.80559	71.80199	1214.76636	-279.73038	250.29683	1135.60425	-267.31073	274.60516	971.38959	-239.14201	204.53889	952.63446	-355.10074	268.44669	911.07123	-338.19238	292.34201	821.73840	-415.30795	254.03642	788.66223	-410.58325	291.90836	752.58539	-448.96628	259.89807	743.03595	-468.77451	246.32898	710.66766	-486.09335	238.70819	672.13782	-440.51852	310.59293	682.55560	-453.00201	289.85016	634.15411	-450.36450	264.15863	600.91010	-254.91864	-248.90089	1149.46204	-197.64311	-261.83942	1008.02417	-172.07532	-184.07698	1002.76447	-283.08270	-239.21643	944.98468	-276.95163	-274.71268	853.69720	-327.86911	-216.22357	816.18341	-340.01230	-263.63773	791.25427	-362.27014	-221.56844	782.89734	-375.37347	-199.16304	745.10907	-379.08463	-200.08920	689.64905	-375.34155	-264.75351	709.84283	-382.11426	-255.13680	670.17133	-374.10684	-226.55376	632.69403	-109.37420	-8.03725	903.26752	-289.48846	163.89026	969.13269	-301.62527	-155.70486	954.00494	-288.15732	182.83078	576.60040	-350.94159	110.34467	487.75928	-298.53506	139.39018	439.66040	-310.64221	28.52138	434.63135	-282.44794	81.90623	267.62247	-184.89743	84.70467	62.64327	-205.26685	-5.20986	83.64902	-126.64535	27.21701	39.81279	-327.47354	67.22278	37.29976	-274.00113	22.26311	64.24551	-384.15472	-184.90735	594.16412	-441.55490	-163.75179	462.61142	-458.41541	-39.58905	449.12741	-399.98788	-108.77673	269.21124	-287.99457	-127.21409	98.45164	-307.68723	-38.31103	114.87258	-227.11716	-75.48904	83.95750	-419.10324	-92.71786	49.12011	-378.77368	-59.67580	78.51482																																																																																																																															
343	2.850	-365.74384	-9.85378	1558.19373	-463.90689	-5.23689	1455.00476	-251.35295	-6.81081	1480.35083	-429.55490	10.42982	1315.88000	-231.35591	8.25238	1370.53931	-306.86258	122.87421	1277.63721	-331.62210	-91.14712	1286.72107	-253.42610	197.74466	1275.43774	-286.81909	-186.40529	1291.10352	-177.38023	92.45457	1294.15527	-187.10094	-89.21909	1296.90759	-130.53242	72.37307	1214.22583	-285.26236	251.17908	1134.95264	-274.33905	274.17059	971.85999	-248.41113	203.29796	950.79980	-362.38239	268.62259	911.12897	-347.18024	291.59589	822.41943	-424.08521	254.09679	789.70294	-420.48410	292.61423	754.17865	-458.27945	259.47733	744.58716	-478.25165	245.07382	712.50708	-496.35345	238.46030	674.79675	-450.79010	310.82318	684.49316	-464.84183	290.13464	636.59235	-459.90894	264.35818	602.11810	-259.87320	-249.69624	1148.52710	-202.38170	-261.43689	1008.09814	-176.02840	-183.26378	1002.14722	-287.31009	-239.60486	944.03436	-281.62857	-274.45316	852.75446	-332.17618	-216.05032	814.68213	-344.73480	-264.31131	790.44031	-367.38278	-221.83783	781.74103	-379.26443	-199.78868	744.17035	-384.34290	-200.27788	689.31946	-379.77969	-264.85266	709.09033	-386.49710	-254.93976	669.18573	-379.30981	-227.12323	631.73877	-114.55209	-8.94586	903.23663	-295.36322	164.88152	968.85229	-307.79895	-155.77814	953.21045	-290.58469	182.75282	576.46027	-353.31226	111.13680	487.20444	-300.62869	139.70741	439.07761	-312.92099	29.00716	434.15744	-282.63751	82.55502	266.87912	-185.06787	84.67899	62.73220	-205.42526	-4.68177	83.23248	-126.58929	26.98490	40.09127	-327.47354	67.22278	37.29976	-274.01733	22.10662	64.37383	-390.68546	-184.84166	594.21008	-449.19604	-161.68208	462.68781	-465.74768	-38.22972	449.31705	-413.13895	-106.19063	268.77963	-306.26590	-125.54631	94.95930	-325.48196	-36.78415	112.10929	-246.35938	-73.15945	77.95680	-439.07086	-90.44638	50.01575	-397.03857	-57.81969	77.84969																																																																																																																															
344	2.858	-370.58594	-9.26381	1557.68848	-470.28760	-4.19484	1454.75574	-256.55264	-6.76854	1480.03113	-434.57196	10.33172	1315.41162	-235.49809	8.59477	1369.44678	-311.54236	123.67622	1277.45447	-335.88925	-90.76852	1285.88062	-258.48627	198.02261	1274.90283	-290.85190	-185.37105	1290.36157	-182.68825	92.88397	1292.84998	-191.74922	-89.33630	1296.09448	-135.85054	71.66969	1213.57227	-290.79861	251.67322	1133.95447	-281.06137	274.51721	970.47198	-254.44664	202.76181	950.07642	-370.06238	268.60406	911.20074	-355.41513	291.25073	822.42688	-432.39282	252.58316	790.74164	-430.00629	291.39771	754.77313	-467.61539	257.69717	745.50342	-488.35364	245.16293	713.72827	-505.71118	238.17938	675.18982	-461.48822	310.42944	686.46350	-474.47095	290.71579	637.45435	-472.58994	265.22980	604.32483	-264.82455	-249.10860	1148.18872	-207.51410	-261.44873	1007.42358	-181.31689	-182.15504	1000.83661	-292.53494	-238.86429	943.22046	-285.01099	-274.70523	852.46637	-338.05078	-216.19476	814.28217	-349.76575	-265.04819	789.91797	-371.02316	-220.68523	781.08282	-386.00119	-199.93629	744.03424	-390.39554	-199.46323	689.53192	-384.59619	-265.48096	708.11945	-390.36615	-255.82747	668.97064	-384.01443	-226.08812	631.10413	-119.66296	-8.55363	903.26007	-300.40256	165.07150	969.28778	-313.30066	-155.16501	952.20532	-294.07840	182.97708	575.92712	-358.11081	110.54301	486.87350	-303.10596	139.66490	437.81219	-315.68250	28.54662	433.81583	-284.67801	83.44061	265.98953	-185.06787	84.67899	62.73220	-205.43665	-5.12345	83.32491	-126.36874	26.63028	40.50307	-327.50497	67.09313	37.41141	-274.19241	22.50531	64.14961	-396.49295	-183.44437	593.44037	-456.00223	-159.75749	462.17920	-471.64157	-36.83115	449.44733	-425.45477	-103.81773	268.09341	-324.59949	-123.65799	90.63146	-342.46069	-34.71415	108.18690	-264.86539	-71.33057	72.97999	-458.21204	-88.32589	49.61676	-415.27930	-56.05983	76.60527																																																																																																																															
